<svg width="36" height="36" viewBox="0 0 36 36" fill="none" xmlns="http://www.w3.org/2000/svg">
<path d="M22.5 26C16.3488 26 11 21.0824 11 14.8706C11 8.65882 16.0814 4 22.5 4C28.9186 4 34 8.91765 34 15.1294C34 21.3412 28.6512 26 22.5 26ZM22.5 6.58824C17.686 6.58824 13.6744 10.4706 13.6744 15.1294C13.6744 19.7882 17.686 23.6706 22.5 23.6706C27.314 23.6706 31.0581 19.5294 31.0581 15.1294C31.0581 10.7294 27.314 6.58824 22.5 6.58824Z" fill="#333333"/>
<path d="M14.0053 20.7285L4.81836 30.7374L6.78088 32.5387L15.9678 22.5299L14.0053 20.7285Z" fill="#333333"/>
</svg>
